#!OML:ASF E:\Steps\Project 1\Capture day 1\Session 2\Subject.ASF
:FULLY-SPECIFIED
:DEGREES
392
root 12.0932 17.1524 8.46059 -155.965 3.1813 176.642
lowerback -27.6441 -3.25937 -5.45059
upperback -0.10164 -2.18693 0.465522
thorax 14.8698 -1.20782 2.6974
lowerneck -0.515991 -0.89372 -1.48599
upperneck 12.581 -0.811672 2.38611
head 4.23747 -0.122426 1.04791
rclavicle -1.67228e-014 7.25564e-015
rhumerus -41.9276 -15.7498 -76.295
rradius 45.0351
rwrist -7.68138
rhand -6.65518 -51.2719
rfingers 7.12502
rthumb 19.2024 279.656
lclavicle -1.67228e-014 7.25564e-015
lhumerus -34.7455 3.72364 80.019
lradius 24.023
lwrist -4.1699
lhand -20.1182 -11.6966
lfingers 7.12502
lthumb 6.22575 18.1919
rfemur -25.7508 9.84813 16.2416
rtibia 13.3037
rfoot -20.355 -5.51284
rtoes -22.7174
lfemur -23.3281 -8.11795 -25.5798
ltibia 10.2539
lfoot -8.32212 -3.01092
ltoes -32.0293
393
root 12.099 17.1507 8.45054 -155.95 3.1733 176.613
lowerback -27.5934 -3.30646 -5.57279
upperback -0.291715 -2.20007 0.509462
thorax 14.6318 -1.20556 2.81193
lowerneck -0.510165 -1.00832 -1.38496
upperneck 12.6593 -0.953238 2.27487
head 4.26574 -0.189251 0.98797
rclavicle -6.44808e-015 -7.15625e-015
rhumerus -41.9644 -15.7175 -76.2836
rradius 44.9175
rwrist -7.65842
rhand -6.61162 -51.5101
rfingers 7.12502
rthumb 19.2443 279.422
lclavicle -6.44808e-015 -7.15625e-015
lhumerus -34.6965 3.94444 79.9478
lradius 23.5918
lwrist -4.40763
lhand -20.4087 -11.4004
lfingers 7.12502
lthumb 5.94526 18.4962
rfemur -25.6734 9.76806 16.2502
rtibia 13.1991
rfoot -20.3583 -5.37755
rtoes -22.2423
lfemur -23.3014 -8.08528 -25.6103
ltibia 10.2467
lfoot -8.41239 -3.00827
ltoes -32.438
394
root 12.1044 17.1514 8.43918 -156.022 3.11635 176.501
lowerback -27.8363 -3.36955 -5.7059
upperback -0.201861 -2.21936 0.483115
thorax 14.8567 -1.22876 2.84035
lowerneck -0.540225 -1.1154 -1.29843
upperneck 12.3771 -1.1285 2.29816
head 4.17265 -0.282946 0.970716
rclavicle 3.36692e-015 -1.59028e-014
rhumerus -41.6283 -15.599 -76.5312
rradius 44.877
rwrist -7.83522
rhand -6.84126 -51.8267
rfingers 7.12502
rthumb 19.0235 279.084
lclavicle 3.36692e-015 -1.59028e-014
lhumerus -34.216 4.2021 79.8264
lradius 23.098
lwrist -4.51991
lhand -20.4317 -11.5038
lfingers 7.12502
lthumb 5.92301 18.3934
rfemur -25.418 9.52523 16.2072
rtibia 12.9649
rfoot -20.2898 -5.20693
rtoes -22.1456
lfemur -23.174 -8.1155 -25.7264
ltibia 10.217
lfoot -8.40482 -3.10804
ltoes -31.66
395
root 12.1119 17.1522 8.42458 -156.102 3.0923 176.49
lowerback -28.0868 -3.37665 -5.73209
upperback -0.114642 -2.19479 0.434787
thorax 15.0737 -1.22392 2.80359
lowerneck -0.60056 -1.1792 -1.17587
upperneck 12.0647 -1.24949 2.32999
head 4.07344 -0.349251 0.951978
rclavicle -1.87603e-014 8.05078e-015
rhumerus -41.2775 -15.6745 -76.7818
rradius 44.6884
rwrist -7.7656
rhand -6.99919 -51.8281
rfingers 7.12502
rthumb 18.8716 279.067
lclavicle -1.87603e-014 8.05078e-015
lhumerus -34.0368 4.27289 79.7163
lradius 23.0156
lwrist -4.37207
lhand -20.4623 -11.6247
lfingers 7.12502
lthumb 5.89353 18.2733
rfemur -25.084 9.28413 16.2962
rtibia 12.6053
rfoot -20.1617 -5.04607
rtoes -22.7904
lfemur -23.0299 -8.21125 -25.6912
ltibia 10.2145
lfoot -8.45469 -3.0871
ltoes -31.0095
396
root 12.1189 17.15 8.40815 -156.114 3.04585 176.586
lowerback -28.2515 -3.34279 -5.63688
upperback -0.158041 -2.15506 0.407318
thorax 15.0929 -1.19242 2.73457
lowerneck -0.659003 -1.25823 -0.959822
upperneck 11.9953 -1.35541 2.15039
head 4.05708 -0.403476 0.849014
rclavicle 8.96395e-015 2.05742e-014
rhumerus -41.1202 -15.8552 -76.9352
rradius 44.4518
rwrist -7.59186
rhand -7.17739 -51.9489
rfingers 7.12502
rthumb 18.7002 278.93
lclavicle 8.96395e-015 2.05742e-014
lhumerus -34.1965 4.36289 79.6043
lradius 23.1623
lwrist -4.25962
lhand -20.5743 -11.5206
lfingers 7.12502
lthumb 5.78536 18.3804
rfemur -24.8447 9.20527 16.4832
rtibia 12.3233
rfoot -20.1143 -4.95373
rtoes -23.1244
lfemur -22.984 -8.2698 -25.538
ltibia 10.293
lfoot -8.54744 -3.03949
ltoes -30.734
397
root 12.122 17.1451 8.39404 -156.105 3.04921 176.583
lowerback -28.4558 -3.29543 -5.61294
upperback -0.181795 -2.06801 0.359052
thorax 15.1507 -1.14552 2.69928
lowerneck -0.660677 -1.2805 -0.838944
upperneck 11.834 -1.38342 1.95914
head 3.99616 -0.426937 0.761509
rclavicle -1.73626e-014 -1.95803e-014
rhumerus -40.9313 -15.9812 -77.0475
rradius 44.1562
rwrist -7.47616
rhand -7.27465 -51.9584
rfingers 7.12502
rthumb 18.6067 278.911
lclavicle -1.73626e-014 -1.95803e-014
lhumerus -33.9435 4.46064 79.5416
lradius 22.8416
lwrist -4.24121
lhand -20.5778 -11.297
lfingers 7.12502
lthumb 5.78197 18.6041
rfemur -24.7045 9.08627 16.5247
rtibia 12.1532
rfoot -20.1069 -4.74385
rtoes -22.5722
lfemur -22.9447 -8.27453 -25.5543
ltibia 10.3385
lfoot -8.59667 -3.06212
ltoes -30.4498
398
root 12.1265 17.1411 8.3826 -156.09 3.08978 176.563
lowerback -28.4689 -3.2773 -5.67549
upperback -0.32362 -2.00532 0.360204
thorax 14.987 -1.10735 2.76216
lowerneck -0.660754 -1.26769 -0.820437
upperneck 11.7565 -1.35798 1.81139
head 3.96598 -0.423095 0.709403
rclavicle -5.88278e-015 9.0447e-015
rhumerus -40.8897 -16.0407 -77.0114
rradius 43.7439
rwrist -7.21981
rhand -7.09207 -51.5288
rfingers 7.12502
rthumb 18.7823 279.358
lclavicle -5.88278e-015 9.0447e-015
lhumerus -33.644 4.54701 79.5358
lradius 22.2906
lwrist -4.23488
lhand -20.6241 -11.2958
lfingers 7.12502
lthumb 5.73729 18.6065
rfemur -24.6098 9.04129 16.5094
rtibia 12.0162
rfoot -20.0662 -4.54924
rtoes -21.4343
lfemur -22.9084 -8.24365 -25.5901
ltibia 10.3427
lfoot -8.68565 -3.06237
ltoes -30.7062
399
root 12.1344 17.139 8.36827 -156.105 3.01638 176.608
lowerback -28.4051 -3.31618 -5.73453
upperback -0.499247 -2.03423 0.427662
thorax 14.7599 -1.10938 2.86133
lowerneck -0.648837 -1.30444 -0.857465
upperneck 11.7838 -1.40339 1.81194
head 3.97463 -0.445674 0.714675
rclavicle -9.4547e-015 1.8487e-014
rhumerus -40.9241 -16.1108 -76.9383
rradius 43.3472
rwrist -6.81582
rhand -6.90312 -51.3507
rfingers 7.12502
rthumb 18.964 279.554
lclavicle -9.4547e-015 1.8487e-014
lhumerus -33.8242 4.60728 79.6009
lradius 22.2572
lwrist -4.12756
lhand -20.8393 -11.4609
lfingers 7.12502
lthumb 5.52946 18.4469
rfemur -24.4103 9.12925 16.5991
rtibia 11.8391
rfoot -20.0868 -4.56805
rtoes -20.8036
lfemur -22.8135 -8.25887 -25.5021
ltibia 10.3073
lfoot -8.75798 -3.12951
ltoes -30.922
400
root 12.1406 17.1394 8.35512 -156.165 2.87932 176.621
lowerback -28.5338 -3.33924 -5.77598
upperback -0.478372 -2.04297 0.45152
thorax 14.8479 -1.11804 2.90317
lowerneck -0.753807 -1.36813 -0.763522
upperneck 11.6421 -1.49684 1.68825
head 3.94313 -0.500476 0.652315
rclavicle 4.87022e-015 -5.06901e-015
rhumerus -40.6925 -16.2913 -76.9836
rradius 42.9777
rwrist -6.53019
rhand -6.892 -51.0929
rfingers 7.12502
rthumb 18.9747 279.813
lclavicle 4.87022e-015 -5.06901e-015
lhumerus -33.8978 4.61398 79.7071
lradius 22.4145
lwrist -3.95937
lhand -20.9991 -11.2894
lfingers 7.12502
lthumb 5.37524 18.6224
rfemur -24.1265 9.06011 16.7033
rtibia 11.5847
rfoot -20.1315 -4.58855
rtoes -21.1226
lfemur -22.669 -8.3574 -25.4359
ltibia 10.2807
lfoot -8.82002 -3.22332
ltoes -30.5169
401
root 12.1459 17.1415 8.34436 -156.2 2.79025 176.669
lowerback -28.7264 -3.31314 -5.73941
upperback -0.426453 -2.00487 0.442758
thorax 14.9937 -1.10199 2.88372
lowerneck -0.846143 -1.30432 -0.677094
upperneck 11.2806 -1.42804 1.51612
head 3.82821 -0.485577 0.58021
rclavicle -3.13086e-015 1.2424e-014
rhumerus -40.4424 -16.3779 -77.1045
rradius 42.6634
rwrist -6.49169
rhand -7.13098 -50.9683
rfingers 7.12502
rthumb 18.7448 279.915
lclavicle -3.13086e-015 1.2424e-014
lhumerus -33.7273 4.57327 79.7853
lradius 22.4085
lwrist -3.79711
lhand -20.9744 -10.9875
lfingers 7.12502
lthumb 5.39904 18.9237
rfemur -23.9403 9.00977 16.8238
rtibia 11.4049
rfoot -20.1064 -4.59771
rtoes -21.39
lfemur -22.5725 -8.40431 -25.3453
ltibia 10.276
lfoot -8.84491 -3.18768
ltoes -29.8446
402
root 12.153 17.1416 8.3322 -156.228 2.80986 176.755
lowerback -28.875 -3.27728 -5.69679
upperback -0.419244 -1.95675 0.438231
thorax 15.0657 -1.07711 2.87158
lowerneck -0.809077 -1.1005 -0.805796
upperneck 10.7567 -1.19734 1.68863
head 3.6361 -0.387944 0.664992
rclavicle -4.15584e-015 4.52235e-015
rhumerus -40.2271 -16.2973 -77.2991
rradius 42.3911
rwrist -6.4569
rhand -7.34004 -51.4661
rfingers 7.12502
rthumb 18.5438 279.398
lclavicle -4.15584e-015 4.52235e-015
lhumerus -33.5879 4.47136 79.8369
lradius 22.4623
lwrist -3.56473
lhand -20.8484 -10.5751
lfingers 7.12502
lthumb 5.52076 19.3329
rfemur -23.8212 9.02451 16.981
rtibia 11.3254
rfoot -20.0499 -4.6253
rtoes -21.7417
lfemur -22.4515 -8.36914 -25.232
ltibia 10.1835
lfoot -8.83006 -3.10997
ltoes -29.4049
403
root 12.1613 17.1407 8.32353 -156.249 2.87713 176.76
lowerback -28.9646 -3.27708 -5.79862
upperback -0.417362 -1.91435 0.448692
thorax 15.1091 -1.06536 2.95342
lowerneck -0.864764 -1.04996 -0.889703
upperneck 10.4103 -1.1651 1.85645
head 3.52754 -0.381459 0.733704
rclavicle 7.37367e-015 -2.32081e-014
rhumerus -39.9368 -16.4045 -77.3679
rradius 41.9464
rwrist -6.15525
rhand -7.08221 -51.4214
rfingers 7.12502
rthumb 18.7918 279.466
lclavicle 7.37367e-015 -2.32081e-014
lhumerus -33.2802 4.66026 79.7896
lradius 22.308
lwrist -3.68281
lhand -20.6426 -10.4895
lfingers 7.12502
lthumb 5.7194 19.4133
rfemur -23.7297 8.76828 17.0847
rtibia 11.2408
rfoot -20.0274 -4.4076
rtoes -22.2956
lfemur -22.3413 -8.28752 -25.22
ltibia 10.0888
lfoot -8.9717 -3.17862
ltoes -29.9546
